<mxfile host="app.diagrams.net" modified="2024-05-10T11:56:00.807Z" agent="Mozilla/5.0 (Windows NT 10.0; Win64; x64) AppleWebKit/537.36 (KHTML, like Gecko) Chrome/124.0.0.0 Safari/537.36 Edg/124.0.0.0" etag="-hhg1i469MjQBKb07w2G" version="24.3.1" type="device">
  <diagram id="C5RBs43oDa-KdzZeNtuy" name="Page-1">
    <mxGraphModel dx="1917" dy="1012" grid="1" gridSize="10" guides="1" tooltips="1" connect="1" arrows="1" fold="1" page="1" pageScale="1" pageWidth="1169" pageHeight="827" math="0" shadow="0">
      <root>
        <mxCell id="WIyWlLk6GJQsqaUBKTNV-0" />
        <mxCell id="WIyWlLk6GJQsqaUBKTNV-1" parent="WIyWlLk6GJQsqaUBKTNV-0" />
        <mxCell id="98_3PeuaqdW5LHzPEtko-37" value="" style="endArrow=none;dashed=1;html=1;rounded=0;strokeWidth=2;" edge="1" parent="WIyWlLk6GJQsqaUBKTNV-1">
          <mxGeometry width="50" height="50" relative="1" as="geometry">
            <mxPoint x="550" y="783" as="sourcePoint" />
            <mxPoint x="550" y="73" as="targetPoint" />
          </mxGeometry>
        </mxCell>
        <mxCell id="WIyWlLk6GJQsqaUBKTNV-2" value="" style="rounded=0;html=1;jettySize=auto;orthogonalLoop=1;fontSize=11;endArrow=block;endFill=0;endSize=8;strokeWidth=1;shadow=0;labelBackgroundColor=none;edgeStyle=orthogonalEdgeStyle;exitX=0.5;exitY=1;exitDx=0;exitDy=0;entryX=0.5;entryY=0;entryDx=0;entryDy=0;" parent="WIyWlLk6GJQsqaUBKTNV-1" source="98_3PeuaqdW5LHzPEtko-1" target="98_3PeuaqdW5LHzPEtko-4" edge="1">
          <mxGeometry relative="1" as="geometry" />
        </mxCell>
        <mxCell id="WIyWlLk6GJQsqaUBKTNV-3" value="gather mac data" style="rounded=1;whiteSpace=wrap;html=1;fontSize=12;glass=0;strokeWidth=1;shadow=0;" parent="WIyWlLk6GJQsqaUBKTNV-1" vertex="1">
          <mxGeometry x="457" y="169" width="120" height="40" as="geometry" />
        </mxCell>
        <mxCell id="WIyWlLk6GJQsqaUBKTNV-4" value="Yes" style="rounded=0;html=1;jettySize=auto;orthogonalLoop=1;fontSize=11;endArrow=block;endFill=0;endSize=8;strokeWidth=1;shadow=0;labelBackgroundColor=none;edgeStyle=orthogonalEdgeStyle;" parent="WIyWlLk6GJQsqaUBKTNV-1" source="WIyWlLk6GJQsqaUBKTNV-6" target="98_3PeuaqdW5LHzPEtko-11" edge="1">
          <mxGeometry x="-0.6562" y="10" relative="1" as="geometry">
            <mxPoint as="offset" />
          </mxGeometry>
        </mxCell>
        <mxCell id="WIyWlLk6GJQsqaUBKTNV-5" value="No" style="edgeStyle=orthogonalEdgeStyle;rounded=0;html=1;jettySize=auto;orthogonalLoop=1;fontSize=11;endArrow=block;endFill=0;endSize=8;strokeWidth=1;shadow=0;labelBackgroundColor=none;" parent="WIyWlLk6GJQsqaUBKTNV-1" source="WIyWlLk6GJQsqaUBKTNV-6" target="WIyWlLk6GJQsqaUBKTNV-7" edge="1">
          <mxGeometry x="-0.6051" y="-10" relative="1" as="geometry">
            <mxPoint as="offset" />
          </mxGeometry>
        </mxCell>
        <mxCell id="WIyWlLk6GJQsqaUBKTNV-6" value="to SDA?" style="rhombus;whiteSpace=wrap;html=1;shadow=0;fontFamily=Helvetica;fontSize=12;align=center;strokeWidth=1;spacing=6;spacingTop=-4;" parent="WIyWlLk6GJQsqaUBKTNV-1" vertex="1">
          <mxGeometry x="809" y="149" width="100" height="80" as="geometry" />
        </mxCell>
        <mxCell id="WIyWlLk6GJQsqaUBKTNV-7" value="Read previous host file" style="rounded=1;whiteSpace=wrap;html=1;fontSize=12;glass=0;strokeWidth=1;shadow=0;" parent="WIyWlLk6GJQsqaUBKTNV-1" vertex="1">
          <mxGeometry x="649" y="169" width="100" height="40" as="geometry" />
        </mxCell>
        <mxCell id="WIyWlLk6GJQsqaUBKTNV-9" value="Yes" style="edgeStyle=orthogonalEdgeStyle;rounded=0;html=1;jettySize=auto;orthogonalLoop=1;fontSize=11;endArrow=block;endFill=0;endSize=8;strokeWidth=1;shadow=0;labelBackgroundColor=none;entryX=0.5;entryY=0;entryDx=0;entryDy=0;exitX=0;exitY=0.5;exitDx=0;exitDy=0;" parent="WIyWlLk6GJQsqaUBKTNV-1" source="WIyWlLk6GJQsqaUBKTNV-10" target="98_3PeuaqdW5LHzPEtko-6" edge="1">
          <mxGeometry x="0.0004" y="-10" relative="1" as="geometry">
            <mxPoint as="offset" />
            <mxPoint x="489" y="594" as="sourcePoint" />
            <mxPoint x="519" y="514" as="targetPoint" />
          </mxGeometry>
        </mxCell>
        <mxCell id="WIyWlLk6GJQsqaUBKTNV-10" value="First Run?" style="rhombus;whiteSpace=wrap;html=1;shadow=0;fontFamily=Helvetica;fontSize=12;align=center;strokeWidth=1;spacing=6;spacingTop=-4;" parent="WIyWlLk6GJQsqaUBKTNV-1" vertex="1">
          <mxGeometry x="472" y="454" width="90" height="60" as="geometry" />
        </mxCell>
        <mxCell id="WIyWlLk6GJQsqaUBKTNV-11" value="Done" style="rounded=1;whiteSpace=wrap;html=1;fontSize=12;glass=0;strokeWidth=1;shadow=0;" parent="WIyWlLk6GJQsqaUBKTNV-1" vertex="1">
          <mxGeometry x="229" y="654" width="90" height="40" as="geometry" />
        </mxCell>
        <mxCell id="WIyWlLk6GJQsqaUBKTNV-12" value="Compare old and new data" style="rounded=1;whiteSpace=wrap;html=1;fontSize=12;glass=0;strokeWidth=1;shadow=0;" parent="WIyWlLk6GJQsqaUBKTNV-1" vertex="1">
          <mxGeometry x="639" y="514" width="100" height="40" as="geometry" />
        </mxCell>
        <mxCell id="98_3PeuaqdW5LHzPEtko-0" value="&lt;font style=&quot;font-size: 15px;&quot;&gt;&lt;b&gt;Before migration&lt;/b&gt;&lt;/font&gt;" style="text;html=1;align=center;verticalAlign=middle;resizable=0;points=[];autosize=1;strokeColor=none;fillColor=none;" vertex="1" parent="WIyWlLk6GJQsqaUBKTNV-1">
          <mxGeometry x="276" y="43" width="140" height="30" as="geometry" />
        </mxCell>
        <mxCell id="98_3PeuaqdW5LHzPEtko-1" value="gather arp data" style="rounded=1;whiteSpace=wrap;html=1;fontSize=12;glass=0;strokeWidth=1;shadow=0;" vertex="1" parent="WIyWlLk6GJQsqaUBKTNV-1">
          <mxGeometry x="457" y="239" width="120" height="40" as="geometry" />
        </mxCell>
        <mxCell id="98_3PeuaqdW5LHzPEtko-3" value="" style="rounded=0;html=1;jettySize=auto;orthogonalLoop=1;fontSize=11;endArrow=block;endFill=0;endSize=8;strokeWidth=1;shadow=0;labelBackgroundColor=none;edgeStyle=orthogonalEdgeStyle;exitX=0.5;exitY=1;exitDx=0;exitDy=0;entryX=0.5;entryY=0;entryDx=0;entryDy=0;" edge="1" parent="WIyWlLk6GJQsqaUBKTNV-1" source="WIyWlLk6GJQsqaUBKTNV-3" target="98_3PeuaqdW5LHzPEtko-1">
          <mxGeometry relative="1" as="geometry">
            <mxPoint x="520" y="219" as="sourcePoint" />
            <mxPoint x="613" y="285" as="targetPoint" />
          </mxGeometry>
        </mxCell>
        <mxCell id="98_3PeuaqdW5LHzPEtko-4" value="DNS lookups" style="rounded=1;whiteSpace=wrap;html=1;fontSize=12;glass=0;strokeWidth=1;shadow=0;" vertex="1" parent="WIyWlLk6GJQsqaUBKTNV-1">
          <mxGeometry x="457" y="309" width="120" height="40" as="geometry" />
        </mxCell>
        <mxCell id="98_3PeuaqdW5LHzPEtko-5" value="enrich host info" style="rounded=1;whiteSpace=wrap;html=1;fontSize=12;glass=0;strokeWidth=1;shadow=0;" vertex="1" parent="WIyWlLk6GJQsqaUBKTNV-1">
          <mxGeometry x="457" y="376" width="120" height="40" as="geometry" />
        </mxCell>
        <mxCell id="98_3PeuaqdW5LHzPEtko-6" value="store host info" style="rounded=1;whiteSpace=wrap;html=1;fontSize=12;glass=0;strokeWidth=1;shadow=0;" vertex="1" parent="WIyWlLk6GJQsqaUBKTNV-1">
          <mxGeometry x="289" y="509" width="120" height="40" as="geometry" />
        </mxCell>
        <mxCell id="98_3PeuaqdW5LHzPEtko-7" value="" style="rounded=0;html=1;jettySize=auto;orthogonalLoop=1;fontSize=11;endArrow=block;endFill=0;endSize=8;strokeWidth=1;shadow=0;labelBackgroundColor=none;edgeStyle=orthogonalEdgeStyle;exitX=0.5;exitY=1;exitDx=0;exitDy=0;entryX=0.5;entryY=0;entryDx=0;entryDy=0;" edge="1" parent="WIyWlLk6GJQsqaUBKTNV-1" source="98_3PeuaqdW5LHzPEtko-4" target="98_3PeuaqdW5LHzPEtko-5">
          <mxGeometry relative="1" as="geometry">
            <mxPoint x="650" y="199" as="sourcePoint" />
            <mxPoint x="650" y="229" as="targetPoint" />
          </mxGeometry>
        </mxCell>
        <mxCell id="98_3PeuaqdW5LHzPEtko-8" value="" style="rounded=0;html=1;jettySize=auto;orthogonalLoop=1;fontSize=11;endArrow=block;endFill=0;endSize=8;strokeWidth=1;shadow=0;labelBackgroundColor=none;edgeStyle=orthogonalEdgeStyle;exitX=0.5;exitY=1;exitDx=0;exitDy=0;entryX=0.5;entryY=0;entryDx=0;entryDy=0;" edge="1" parent="WIyWlLk6GJQsqaUBKTNV-1" source="98_3PeuaqdW5LHzPEtko-6" target="98_3PeuaqdW5LHzPEtko-13">
          <mxGeometry relative="1" as="geometry">
            <mxPoint x="569" y="535" as="sourcePoint" />
            <mxPoint x="629" y="533.9999999999999" as="targetPoint" />
          </mxGeometry>
        </mxCell>
        <mxCell id="98_3PeuaqdW5LHzPEtko-9" value="get user info" style="rounded=1;whiteSpace=wrap;html=1;fontSize=12;glass=0;strokeWidth=1;shadow=0;" vertex="1" parent="WIyWlLk6GJQsqaUBKTNV-1">
          <mxGeometry x="369" y="654" width="120" height="40" as="geometry" />
        </mxCell>
        <mxCell id="98_3PeuaqdW5LHzPEtko-10" value="&lt;font style=&quot;font-size: 15px;&quot;&gt;&lt;b&gt;After migration&lt;/b&gt;&lt;/font&gt;" style="text;html=1;align=center;verticalAlign=middle;resizable=0;points=[];autosize=1;strokeColor=none;fillColor=none;" vertex="1" parent="WIyWlLk6GJQsqaUBKTNV-1">
          <mxGeometry x="787" y="43" width="130" height="30" as="geometry" />
        </mxCell>
        <mxCell id="98_3PeuaqdW5LHzPEtko-11" value="Get active session data from ISE" style="rounded=1;whiteSpace=wrap;html=1;fontSize=12;glass=0;strokeWidth=1;shadow=0;" vertex="1" parent="WIyWlLk6GJQsqaUBKTNV-1">
          <mxGeometry x="939" y="234" width="120" height="40" as="geometry" />
        </mxCell>
        <mxCell id="98_3PeuaqdW5LHzPEtko-12" value="" style="rounded=0;html=1;jettySize=auto;orthogonalLoop=1;fontSize=11;endArrow=block;endFill=0;endSize=8;strokeWidth=1;shadow=0;labelBackgroundColor=none;edgeStyle=orthogonalEdgeStyle;exitX=0.5;exitY=1;exitDx=0;exitDy=0;" edge="1" parent="WIyWlLk6GJQsqaUBKTNV-1" source="98_3PeuaqdW5LHzPEtko-5" target="WIyWlLk6GJQsqaUBKTNV-10">
          <mxGeometry relative="1" as="geometry">
            <mxPoint x="527" y="411" as="sourcePoint" />
            <mxPoint x="527" y="433" as="targetPoint" />
          </mxGeometry>
        </mxCell>
        <mxCell id="98_3PeuaqdW5LHzPEtko-13" value="Need user info?" style="rhombus;whiteSpace=wrap;html=1;shadow=0;fontFamily=Helvetica;fontSize=12;align=center;strokeWidth=1;spacing=6;spacingTop=-4;" vertex="1" parent="WIyWlLk6GJQsqaUBKTNV-1">
          <mxGeometry x="304" y="574" width="90" height="60" as="geometry" />
        </mxCell>
        <mxCell id="98_3PeuaqdW5LHzPEtko-14" value="Yes" style="edgeStyle=orthogonalEdgeStyle;rounded=0;html=1;jettySize=auto;orthogonalLoop=1;fontSize=11;endArrow=block;endFill=0;endSize=8;strokeWidth=1;shadow=0;labelBackgroundColor=none;entryX=0.5;entryY=0;entryDx=0;entryDy=0;exitX=1;exitY=0.5;exitDx=0;exitDy=0;" edge="1" parent="WIyWlLk6GJQsqaUBKTNV-1" source="98_3PeuaqdW5LHzPEtko-13" target="98_3PeuaqdW5LHzPEtko-9">
          <mxGeometry x="-0.6473" y="10" relative="1" as="geometry">
            <mxPoint as="offset" />
            <mxPoint x="484" y="494" as="sourcePoint" />
            <mxPoint x="359" y="524" as="targetPoint" />
          </mxGeometry>
        </mxCell>
        <mxCell id="98_3PeuaqdW5LHzPEtko-15" value="No" style="edgeStyle=orthogonalEdgeStyle;rounded=0;html=1;jettySize=auto;orthogonalLoop=1;fontSize=11;endArrow=block;endFill=0;endSize=8;strokeWidth=1;shadow=0;labelBackgroundColor=none;entryX=0.5;entryY=0;entryDx=0;entryDy=0;exitX=0;exitY=0.5;exitDx=0;exitDy=0;" edge="1" parent="WIyWlLk6GJQsqaUBKTNV-1" source="98_3PeuaqdW5LHzPEtko-13" target="WIyWlLk6GJQsqaUBKTNV-11">
          <mxGeometry x="-0.6251" y="-10" relative="1" as="geometry">
            <mxPoint as="offset" />
            <mxPoint x="404" y="614" as="sourcePoint" />
            <mxPoint x="439" y="664" as="targetPoint" />
          </mxGeometry>
        </mxCell>
        <mxCell id="98_3PeuaqdW5LHzPEtko-16" value="contact Departments/Sectons" style="rounded=1;whiteSpace=wrap;html=1;fontSize=12;glass=0;strokeWidth=1;shadow=0;" vertex="1" parent="WIyWlLk6GJQsqaUBKTNV-1">
          <mxGeometry x="369" y="724" width="120" height="40" as="geometry" />
        </mxCell>
        <mxCell id="98_3PeuaqdW5LHzPEtko-17" value="" style="rounded=0;html=1;jettySize=auto;orthogonalLoop=1;fontSize=11;endArrow=block;endFill=0;endSize=8;strokeWidth=1;shadow=0;labelBackgroundColor=none;edgeStyle=orthogonalEdgeStyle;exitX=0.5;exitY=1;exitDx=0;exitDy=0;entryX=0.5;entryY=0;entryDx=0;entryDy=0;" edge="1" parent="WIyWlLk6GJQsqaUBKTNV-1" source="98_3PeuaqdW5LHzPEtko-9" target="98_3PeuaqdW5LHzPEtko-16">
          <mxGeometry relative="1" as="geometry">
            <mxPoint x="359" y="559" as="sourcePoint" />
            <mxPoint x="359" y="584" as="targetPoint" />
          </mxGeometry>
        </mxCell>
        <mxCell id="98_3PeuaqdW5LHzPEtko-18" value="Start Gathering new data" style="rounded=1;whiteSpace=wrap;html=1;fontSize=12;glass=0;strokeWidth=1;shadow=0;" vertex="1" parent="WIyWlLk6GJQsqaUBKTNV-1">
          <mxGeometry x="286" y="87" width="120" height="40" as="geometry" />
        </mxCell>
        <mxCell id="98_3PeuaqdW5LHzPEtko-19" value="" style="rounded=0;html=1;jettySize=auto;orthogonalLoop=1;fontSize=11;endArrow=block;endFill=0;endSize=8;strokeWidth=1;shadow=0;labelBackgroundColor=none;edgeStyle=orthogonalEdgeStyle;exitX=0.5;exitY=1;exitDx=0;exitDy=0;entryX=0;entryY=0.5;entryDx=0;entryDy=0;" edge="1" parent="WIyWlLk6GJQsqaUBKTNV-1" source="98_3PeuaqdW5LHzPEtko-18" target="WIyWlLk6GJQsqaUBKTNV-3">
          <mxGeometry relative="1" as="geometry">
            <mxPoint x="529" y="204" as="sourcePoint" />
            <mxPoint x="529" y="234" as="targetPoint" />
          </mxGeometry>
        </mxCell>
        <mxCell id="98_3PeuaqdW5LHzPEtko-20" value="" style="rounded=0;html=1;jettySize=auto;orthogonalLoop=1;fontSize=11;endArrow=block;endFill=0;endSize=8;strokeWidth=1;shadow=0;labelBackgroundColor=none;edgeStyle=orthogonalEdgeStyle;exitX=0;exitY=0.5;exitDx=0;exitDy=0;entryX=1;entryY=0.5;entryDx=0;entryDy=0;" edge="1" parent="WIyWlLk6GJQsqaUBKTNV-1" source="WIyWlLk6GJQsqaUBKTNV-7" target="WIyWlLk6GJQsqaUBKTNV-3">
          <mxGeometry relative="1" as="geometry">
            <mxPoint x="529" y="204" as="sourcePoint" />
            <mxPoint x="609" y="214" as="targetPoint" />
          </mxGeometry>
        </mxCell>
        <mxCell id="98_3PeuaqdW5LHzPEtko-21" value="No" style="edgeStyle=orthogonalEdgeStyle;rounded=0;html=1;jettySize=auto;orthogonalLoop=1;fontSize=11;endArrow=block;endFill=0;endSize=8;strokeWidth=1;shadow=0;labelBackgroundColor=none;exitX=1;exitY=0.5;exitDx=0;exitDy=0;entryX=0.5;entryY=0;entryDx=0;entryDy=0;" edge="1" parent="WIyWlLk6GJQsqaUBKTNV-1" source="WIyWlLk6GJQsqaUBKTNV-10" target="WIyWlLk6GJQsqaUBKTNV-12">
          <mxGeometry y="10" relative="1" as="geometry">
            <mxPoint as="offset" />
            <mxPoint x="742.5" y="454" as="sourcePoint" />
            <mxPoint x="655.5" y="504" as="targetPoint" />
          </mxGeometry>
        </mxCell>
        <mxCell id="98_3PeuaqdW5LHzPEtko-22" value="Adjust Messages" style="rounded=1;whiteSpace=wrap;html=1;fontSize=12;glass=0;strokeWidth=1;shadow=0;" vertex="1" parent="WIyWlLk6GJQsqaUBKTNV-1">
          <mxGeometry x="639" y="574" width="100" height="40" as="geometry" />
        </mxCell>
        <mxCell id="98_3PeuaqdW5LHzPEtko-23" value="Print &amp;amp; ms-teams?" style="rhombus;whiteSpace=wrap;html=1;shadow=0;fontFamily=Helvetica;fontSize=12;align=center;strokeWidth=1;spacing=6;spacingTop=-4;" vertex="1" parent="WIyWlLk6GJQsqaUBKTNV-1">
          <mxGeometry x="786" y="624" width="98" height="70" as="geometry" />
        </mxCell>
        <mxCell id="98_3PeuaqdW5LHzPEtko-24" value="Done" style="rounded=1;whiteSpace=wrap;html=1;fontSize=12;glass=0;strokeWidth=1;shadow=0;" vertex="1" parent="WIyWlLk6GJQsqaUBKTNV-1">
          <mxGeometry x="790" y="734" width="90" height="40" as="geometry" />
        </mxCell>
        <mxCell id="98_3PeuaqdW5LHzPEtko-25" value="" style="rounded=0;html=1;jettySize=auto;orthogonalLoop=1;fontSize=11;endArrow=block;endFill=0;endSize=8;strokeWidth=1;shadow=0;labelBackgroundColor=none;edgeStyle=orthogonalEdgeStyle;exitX=0.5;exitY=1;exitDx=0;exitDy=0;entryX=0.5;entryY=0;entryDx=0;entryDy=0;" edge="1" parent="WIyWlLk6GJQsqaUBKTNV-1" source="WIyWlLk6GJQsqaUBKTNV-12" target="98_3PeuaqdW5LHzPEtko-22">
          <mxGeometry relative="1" as="geometry">
            <mxPoint x="609" y="564" as="sourcePoint" />
            <mxPoint x="609" y="594" as="targetPoint" />
          </mxGeometry>
        </mxCell>
        <mxCell id="98_3PeuaqdW5LHzPEtko-26" value="" style="rounded=0;html=1;jettySize=auto;orthogonalLoop=1;fontSize=11;endArrow=block;endFill=0;endSize=8;strokeWidth=1;shadow=0;labelBackgroundColor=none;edgeStyle=orthogonalEdgeStyle;exitX=0.5;exitY=1;exitDx=0;exitDy=0;entryX=0.5;entryY=0;entryDx=0;entryDy=0;" edge="1" parent="WIyWlLk6GJQsqaUBKTNV-1" source="98_3PeuaqdW5LHzPEtko-34" target="98_3PeuaqdW5LHzPEtko-23">
          <mxGeometry relative="1" as="geometry">
            <mxPoint x="790" y="564" as="sourcePoint" />
            <mxPoint x="790" y="594" as="targetPoint" />
          </mxGeometry>
        </mxCell>
        <mxCell id="98_3PeuaqdW5LHzPEtko-27" value="" style="rounded=0;html=1;jettySize=auto;orthogonalLoop=1;fontSize=11;endArrow=block;endFill=0;endSize=8;strokeWidth=1;shadow=0;labelBackgroundColor=none;edgeStyle=orthogonalEdgeStyle;exitX=0.5;exitY=1;exitDx=0;exitDy=0;entryX=0;entryY=0.5;entryDx=0;entryDy=0;" edge="1" parent="WIyWlLk6GJQsqaUBKTNV-1" source="98_3PeuaqdW5LHzPEtko-22" target="98_3PeuaqdW5LHzPEtko-23">
          <mxGeometry relative="1" as="geometry">
            <mxPoint x="629" y="584" as="sourcePoint" />
            <mxPoint x="629" y="614" as="targetPoint" />
          </mxGeometry>
        </mxCell>
        <mxCell id="98_3PeuaqdW5LHzPEtko-28" value="Yes" style="edgeStyle=orthogonalEdgeStyle;rounded=0;html=1;jettySize=auto;orthogonalLoop=1;fontSize=11;endArrow=block;endFill=0;endSize=8;strokeWidth=1;shadow=0;labelBackgroundColor=none;entryX=0.5;entryY=0;entryDx=0;entryDy=0;exitX=1;exitY=0.5;exitDx=0;exitDy=0;" edge="1" parent="WIyWlLk6GJQsqaUBKTNV-1" source="98_3PeuaqdW5LHzPEtko-23" target="98_3PeuaqdW5LHzPEtko-29">
          <mxGeometry x="-0.6296" y="15" relative="1" as="geometry">
            <mxPoint as="offset" />
            <mxPoint x="1084" y="661.5" as="sourcePoint" />
            <mxPoint x="959" y="686.5" as="targetPoint" />
          </mxGeometry>
        </mxCell>
        <mxCell id="98_3PeuaqdW5LHzPEtko-29" value="Send out messages" style="rounded=1;whiteSpace=wrap;html=1;fontSize=12;glass=0;strokeWidth=1;shadow=0;" vertex="1" parent="WIyWlLk6GJQsqaUBKTNV-1">
          <mxGeometry x="916" y="685" width="100" height="40" as="geometry" />
        </mxCell>
        <mxCell id="98_3PeuaqdW5LHzPEtko-30" value="No" style="edgeStyle=orthogonalEdgeStyle;rounded=0;html=1;jettySize=auto;orthogonalLoop=1;fontSize=11;endArrow=block;endFill=0;endSize=8;strokeWidth=1;shadow=0;labelBackgroundColor=none;entryX=0.5;entryY=0;entryDx=0;entryDy=0;exitX=0.5;exitY=1;exitDx=0;exitDy=0;" edge="1" parent="WIyWlLk6GJQsqaUBKTNV-1" source="98_3PeuaqdW5LHzPEtko-23" target="98_3PeuaqdW5LHzPEtko-24">
          <mxGeometry x="-0.5" y="-16" relative="1" as="geometry">
            <mxPoint as="offset" />
            <mxPoint x="739" y="684" as="sourcePoint" />
            <mxPoint x="709" y="734" as="targetPoint" />
          </mxGeometry>
        </mxCell>
        <mxCell id="98_3PeuaqdW5LHzPEtko-31" value="" style="rounded=0;html=1;jettySize=auto;orthogonalLoop=1;fontSize=11;endArrow=block;endFill=0;endSize=8;strokeWidth=1;shadow=0;labelBackgroundColor=none;edgeStyle=orthogonalEdgeStyle;entryX=1;entryY=0.5;entryDx=0;entryDy=0;exitX=0.5;exitY=1;exitDx=0;exitDy=0;" edge="1" parent="WIyWlLk6GJQsqaUBKTNV-1" source="98_3PeuaqdW5LHzPEtko-29" target="98_3PeuaqdW5LHzPEtko-24">
          <mxGeometry relative="1" as="geometry">
            <mxPoint x="899" y="714" as="sourcePoint" />
            <mxPoint x="629" y="614" as="targetPoint" />
          </mxGeometry>
        </mxCell>
        <mxCell id="98_3PeuaqdW5LHzPEtko-32" value="Compare old data with data from ISE" style="rounded=1;whiteSpace=wrap;html=1;fontSize=12;glass=0;strokeWidth=1;shadow=0;" vertex="1" parent="WIyWlLk6GJQsqaUBKTNV-1">
          <mxGeometry x="939" y="340" width="120" height="40" as="geometry" />
        </mxCell>
        <mxCell id="98_3PeuaqdW5LHzPEtko-33" value="" style="rounded=0;html=1;jettySize=auto;orthogonalLoop=1;fontSize=11;endArrow=block;endFill=0;endSize=8;strokeWidth=1;shadow=0;labelBackgroundColor=none;edgeStyle=orthogonalEdgeStyle;exitX=0.5;exitY=1;exitDx=0;exitDy=0;entryX=0.5;entryY=0;entryDx=0;entryDy=0;" edge="1" parent="WIyWlLk6GJQsqaUBKTNV-1" source="98_3PeuaqdW5LHzPEtko-11" target="98_3PeuaqdW5LHzPEtko-32">
          <mxGeometry relative="1" as="geometry">
            <mxPoint x="1009" y="343" as="sourcePoint" />
            <mxPoint x="969" y="253" as="targetPoint" />
          </mxGeometry>
        </mxCell>
        <mxCell id="98_3PeuaqdW5LHzPEtko-34" value="Adjust Messages" style="rounded=1;whiteSpace=wrap;html=1;fontSize=12;glass=0;strokeWidth=1;shadow=0;" vertex="1" parent="WIyWlLk6GJQsqaUBKTNV-1">
          <mxGeometry x="939" y="447" width="120" height="40" as="geometry" />
        </mxCell>
        <mxCell id="98_3PeuaqdW5LHzPEtko-35" value="" style="rounded=0;html=1;jettySize=auto;orthogonalLoop=1;fontSize=11;endArrow=block;endFill=0;endSize=8;strokeWidth=1;shadow=0;labelBackgroundColor=none;edgeStyle=orthogonalEdgeStyle;exitX=0.5;exitY=1;exitDx=0;exitDy=0;entryX=0.5;entryY=0;entryDx=0;entryDy=0;" edge="1" parent="WIyWlLk6GJQsqaUBKTNV-1" source="98_3PeuaqdW5LHzPEtko-32" target="98_3PeuaqdW5LHzPEtko-34">
          <mxGeometry relative="1" as="geometry">
            <mxPoint x="1009" y="244" as="sourcePoint" />
            <mxPoint x="1009" y="333" as="targetPoint" />
          </mxGeometry>
        </mxCell>
        <mxCell id="98_3PeuaqdW5LHzPEtko-38" value="" style="shape=cylinder3;whiteSpace=wrap;html=1;boundedLbl=1;backgroundOutline=1;size=15;" vertex="1" parent="WIyWlLk6GJQsqaUBKTNV-1">
          <mxGeometry x="129" y="489" width="60" height="80" as="geometry" />
        </mxCell>
        <mxCell id="98_3PeuaqdW5LHzPEtko-39" value="" style="rounded=0;html=1;jettySize=auto;orthogonalLoop=1;fontSize=11;endArrow=block;endFill=0;endSize=8;strokeWidth=1;shadow=0;labelBackgroundColor=none;edgeStyle=orthogonalEdgeStyle;entryX=1;entryY=0.5;entryDx=0;entryDy=0;entryPerimeter=0;exitX=0;exitY=0.5;exitDx=0;exitDy=0;dashed=1;dashPattern=8 8;" edge="1" parent="WIyWlLk6GJQsqaUBKTNV-1" source="98_3PeuaqdW5LHzPEtko-6" target="98_3PeuaqdW5LHzPEtko-38">
          <mxGeometry relative="1" as="geometry">
            <mxPoint x="299" y="283" as="sourcePoint" />
            <mxPoint x="379" y="383" as="targetPoint" />
          </mxGeometry>
        </mxCell>
        <mxCell id="98_3PeuaqdW5LHzPEtko-40" value="" style="rounded=0;html=1;jettySize=auto;orthogonalLoop=1;fontSize=11;endArrow=block;endFill=0;endSize=8;strokeWidth=1;shadow=0;labelBackgroundColor=none;edgeStyle=orthogonalEdgeStyle;entryX=0.5;entryY=0;entryDx=0;entryDy=0;exitX=0.5;exitY=0;exitDx=0;exitDy=0;dashed=1;dashPattern=8 8;exitPerimeter=0;" edge="1" parent="WIyWlLk6GJQsqaUBKTNV-1" source="98_3PeuaqdW5LHzPEtko-38" target="WIyWlLk6GJQsqaUBKTNV-7">
          <mxGeometry relative="1" as="geometry">
            <mxPoint x="299" y="539" as="sourcePoint" />
            <mxPoint x="199" y="539" as="targetPoint" />
          </mxGeometry>
        </mxCell>
        <mxCell id="98_3PeuaqdW5LHzPEtko-41" value="Start Gathering new data" style="rounded=1;whiteSpace=wrap;html=1;fontSize=12;glass=0;strokeWidth=1;shadow=0;" vertex="1" parent="WIyWlLk6GJQsqaUBKTNV-1">
          <mxGeometry x="799" y="87" width="120" height="40" as="geometry" />
        </mxCell>
        <mxCell id="98_3PeuaqdW5LHzPEtko-43" value="" style="rounded=0;html=1;jettySize=auto;orthogonalLoop=1;fontSize=11;endArrow=block;endFill=0;endSize=8;strokeWidth=1;shadow=0;labelBackgroundColor=none;edgeStyle=orthogonalEdgeStyle;exitX=0.5;exitY=1;exitDx=0;exitDy=0;entryX=0.5;entryY=0;entryDx=0;entryDy=0;" edge="1" parent="WIyWlLk6GJQsqaUBKTNV-1" source="98_3PeuaqdW5LHzPEtko-41" target="WIyWlLk6GJQsqaUBKTNV-6">
          <mxGeometry relative="1" as="geometry">
            <mxPoint x="1009" y="284" as="sourcePoint" />
            <mxPoint x="1009" y="350" as="targetPoint" />
          </mxGeometry>
        </mxCell>
        <mxCell id="98_3PeuaqdW5LHzPEtko-44" value="" style="fontColor=#0066CC;verticalAlign=top;verticalLabelPosition=bottom;labelPosition=center;align=center;html=1;outlineConnect=0;fillColor=#CCCCCC;strokeColor=#6881B3;gradientColor=none;gradientDirection=north;strokeWidth=2;shape=mxgraph.networks.switch;" vertex="1" parent="WIyWlLk6GJQsqaUBKTNV-1">
          <mxGeometry x="349" y="229" width="70" height="20" as="geometry" />
        </mxCell>
        <mxCell id="98_3PeuaqdW5LHzPEtko-50" value="" style="fontColor=#0066CC;verticalAlign=top;verticalLabelPosition=bottom;labelPosition=center;align=center;html=1;outlineConnect=0;fillColor=#CCCCCC;strokeColor=#6881B3;gradientColor=none;gradientDirection=north;strokeWidth=2;shape=mxgraph.networks.users;" vertex="1" parent="WIyWlLk6GJQsqaUBKTNV-1">
          <mxGeometry x="469" y="573" width="50" height="61" as="geometry" />
        </mxCell>
        <mxCell id="98_3PeuaqdW5LHzPEtko-51" value="" style="sketch=0;points=[[0.015,0.015,0],[0.985,0.015,0],[0.985,0.985,0],[0.015,0.985,0],[0.25,0,0],[0.5,0,0],[0.75,0,0],[1,0.25,0],[1,0.5,0],[1,0.75,0],[0.75,1,0],[0.5,1,0],[0.25,1,0],[0,0.75,0],[0,0.5,0],[0,0.25,0]];verticalLabelPosition=bottom;html=1;verticalAlign=top;aspect=fixed;align=center;pointerEvents=1;shape=mxgraph.cisco19.rect;prIcon=ise;fillColor=#FAFAFA;strokeColor=#005073;" vertex="1" parent="WIyWlLk6GJQsqaUBKTNV-1">
          <mxGeometry x="824" y="250" width="75" height="75" as="geometry" />
        </mxCell>
        <mxCell id="98_3PeuaqdW5LHzPEtko-52" value="" style="image;html=1;image=img/lib/clip_art/computers/Server_Rack_128x128.png" vertex="1" parent="WIyWlLk6GJQsqaUBKTNV-1">
          <mxGeometry x="204" y="193" width="100" height="95" as="geometry" />
        </mxCell>
        <mxCell id="98_3PeuaqdW5LHzPEtko-53" value="" style="fontColor=#0066CC;verticalAlign=top;verticalLabelPosition=bottom;labelPosition=center;align=center;html=1;outlineConnect=0;fillColor=#CCCCCC;strokeColor=#6881B3;gradientColor=none;gradientDirection=north;strokeWidth=2;shape=mxgraph.networks.switch;" vertex="1" parent="WIyWlLk6GJQsqaUBKTNV-1">
          <mxGeometry x="349" y="261" width="70" height="20" as="geometry" />
        </mxCell>
        <mxCell id="98_3PeuaqdW5LHzPEtko-54" value="" style="fontColor=#0066CC;verticalAlign=top;verticalLabelPosition=bottom;labelPosition=center;align=center;html=1;outlineConnect=0;fillColor=#CCCCCC;strokeColor=#6881B3;gradientColor=none;gradientDirection=north;strokeWidth=2;shape=mxgraph.networks.switch;" vertex="1" parent="WIyWlLk6GJQsqaUBKTNV-1">
          <mxGeometry x="349" y="291" width="70" height="20" as="geometry" />
        </mxCell>
        <mxCell id="98_3PeuaqdW5LHzPEtko-56" value="" style="fontColor=#0066CC;verticalAlign=top;verticalLabelPosition=bottom;labelPosition=center;align=center;html=1;outlineConnect=0;fillColor=#CCCCCC;strokeColor=#6881B3;gradientColor=none;gradientDirection=north;strokeWidth=2;shape=mxgraph.networks.switch;" vertex="1" parent="WIyWlLk6GJQsqaUBKTNV-1">
          <mxGeometry x="609" y="230" width="70" height="20" as="geometry" />
        </mxCell>
        <mxCell id="98_3PeuaqdW5LHzPEtko-57" value="" style="fontColor=#0066CC;verticalAlign=top;verticalLabelPosition=bottom;labelPosition=center;align=center;html=1;outlineConnect=0;fillColor=#CCCCCC;strokeColor=#6881B3;gradientColor=none;gradientDirection=north;strokeWidth=2;shape=mxgraph.networks.switch;" vertex="1" parent="WIyWlLk6GJQsqaUBKTNV-1">
          <mxGeometry x="609" y="262" width="70" height="20" as="geometry" />
        </mxCell>
        <mxCell id="98_3PeuaqdW5LHzPEtko-58" value="" style="fontColor=#0066CC;verticalAlign=top;verticalLabelPosition=bottom;labelPosition=center;align=center;html=1;outlineConnect=0;fillColor=#CCCCCC;strokeColor=#6881B3;gradientColor=none;gradientDirection=north;strokeWidth=2;shape=mxgraph.networks.switch;" vertex="1" parent="WIyWlLk6GJQsqaUBKTNV-1">
          <mxGeometry x="609" y="292" width="70" height="20" as="geometry" />
        </mxCell>
        <mxCell id="98_3PeuaqdW5LHzPEtko-59" value="" style="image;sketch=0;aspect=fixed;html=1;points=[];align=center;fontSize=12;image=img/lib/mscae/DNS.svg;" vertex="1" parent="WIyWlLk6GJQsqaUBKTNV-1">
          <mxGeometry x="356" y="347" width="50" height="50" as="geometry" />
        </mxCell>
        <mxCell id="98_3PeuaqdW5LHzPEtko-60" value="" style="image;sketch=0;aspect=fixed;html=1;points=[];align=center;fontSize=12;image=img/lib/mscae/DNS.svg;" vertex="1" parent="WIyWlLk6GJQsqaUBKTNV-1">
          <mxGeometry x="624" y="347" width="50" height="50" as="geometry" />
        </mxCell>
        <mxCell id="98_3PeuaqdW5LHzPEtko-62" value="" style="shape=image;html=1;verticalAlign=top;verticalLabelPosition=bottom;labelBackgroundColor=#ffffff;imageAspect=0;aspect=fixed;image=https://cdn0.iconfinder.com/data/icons/logos-microsoft-office-365/128/Microsoft_Office-10-128.png" vertex="1" parent="WIyWlLk6GJQsqaUBKTNV-1">
          <mxGeometry x="999" y="573" width="49" height="49" as="geometry" />
        </mxCell>
        <mxCell id="98_3PeuaqdW5LHzPEtko-63" value="" style="fontColor=#0066CC;verticalAlign=top;verticalLabelPosition=bottom;labelPosition=center;align=center;html=1;outlineConnect=0;fillColor=#CCCCCC;strokeColor=#6881B3;gradientColor=none;gradientDirection=north;strokeWidth=2;shape=mxgraph.networks.terminal;" vertex="1" parent="WIyWlLk6GJQsqaUBKTNV-1">
          <mxGeometry x="909" y="585" width="60" height="37" as="geometry" />
        </mxCell>
        <mxCell id="98_3PeuaqdW5LHzPEtko-64" value="" style="html=1;strokeWidth=2;outlineConnect=0;dashed=0;align=center;fontSize=8;fillColor=#c0f5a9;verticalLabelPosition=bottom;verticalAlign=top;shape=mxgraph.eip.message_filter;" vertex="1" parent="WIyWlLk6GJQsqaUBKTNV-1">
          <mxGeometry x="574" y="549" width="50" height="31" as="geometry" />
        </mxCell>
        <mxCell id="98_3PeuaqdW5LHzPEtko-65" value="" style="html=1;strokeWidth=2;outlineConnect=0;dashed=0;align=center;fontSize=8;fillColor=#c0f5a9;verticalLabelPosition=bottom;verticalAlign=top;shape=mxgraph.eip.message_filter;" vertex="1" parent="WIyWlLk6GJQsqaUBKTNV-1">
          <mxGeometry x="849" y="403" width="50" height="31" as="geometry" />
        </mxCell>
      </root>
    </mxGraphModel>
  </diagram>
</mxfile>
